<svg width="121" height="30" viewBox="0 0 121 30" fill="none" xmlns="http://www.w3.org/2000/svg">
<g clip-path="url(#clip0_195_1233)">
<path d="M74.9692 1.85394C76.6027 1.84003 78.2362 1.82613 79.9192 1.8118C80.4309 1.80566 80.9425 1.79953 81.4696 1.7932C81.8809 1.79123 82.2923 1.78952 82.7036 1.7881C83.0169 1.78293 83.0169 1.78293 83.3365 1.77765C85.4242 1.77682 87.1511 2.23996 88.6769 3.70787C89.6452 4.82445 89.963 6.37932 89.9098 7.8305C89.7218 9.49724 89.1724 10.9222 87.8837 12.0295C87.6969 12.1771 87.5101 12.3246 87.3231 12.4719C87.2114 12.5831 87.0997 12.6944 86.9846 12.809C87.052 12.8947 87.1193 12.9804 87.1887 13.0688C87.4982 13.463 87.8073 13.8576 88.1164 14.2521C88.2223 14.3869 88.3282 14.5217 88.4373 14.6606C90.2 16.9125 90.2 16.9125 90.2 17.3596C87.004 17.8408 87.004 17.8408 85.9045 17.0808C85.0287 16.1994 84.2926 15.0973 83.7746 13.9687C83.578 13.5959 83.4381 13.3921 83.0923 13.1461C82.2848 12.9768 81.4929 12.9811 80.6702 12.9881C80.448 12.9853 80.2258 12.9826 79.9969 12.9798C79.4493 12.9739 78.9015 12.975 78.3539 12.9775C78.3539 14.4236 78.3539 15.8697 78.3539 17.3596C77.2369 17.3596 76.12 17.3596 74.9692 17.3596C74.9692 12.2427 74.9692 7.12585 74.9692 1.85394ZM78.3539 5.05618C78.3539 6.66911 78.3539 8.28203 78.3539 9.94382C79.1758 9.95547 79.9974 9.96553 80.8194 9.9716C81.0986 9.97413 81.3778 9.97757 81.657 9.98197C82.0598 9.98815 82.4626 9.99098 82.8656 9.9932C83.0507 9.99712 83.0507 9.99712 83.2397 10.0011C84.1026 10.0014 84.6938 9.83721 85.4615 9.43821C86.0985 8.80386 86.1869 8.27173 86.2125 7.4052C86.2115 6.64049 86.1149 6.16621 85.6308 5.5618C84.7845 5.02903 84.1134 4.98765 83.1465 5.00681C82.9402 5.00788 82.9402 5.00788 82.7297 5.00898C82.2935 5.01179 81.8574 5.01813 81.4212 5.02458C81.1241 5.02712 80.8271 5.02943 80.5301 5.0315C79.8046 5.03662 79.0794 5.04652 78.3539 5.05618Z" fill="#F8F9FA" fill-opacity="0.75"/>
<path d="M24.0308 1.85394C25.6643 1.84003 27.2978 1.82613 28.9808 1.8118C29.4924 1.80566 30.004 1.79953 30.5311 1.7932C30.9424 1.79123 31.3538 1.78952 31.7651 1.7881C32.0784 1.78293 32.0784 1.78293 32.398 1.77765C34.245 1.77692 35.9659 2.1193 37.404 3.34314C38.6027 4.65018 38.9802 6.18655 38.9231 7.92135C38.7909 9.4854 38.2281 10.9202 37.0298 11.9663C36.8156 12.136 36.6007 12.3047 36.3846 12.4719C36.2729 12.5831 36.1612 12.6944 36.0461 12.809C36.1135 12.8947 36.1808 12.9804 36.2502 13.0688C36.5597 13.463 36.8688 13.8576 37.1779 14.2521C37.2838 14.3869 37.3897 14.5217 37.4988 14.6606C39.2615 16.9125 39.2615 16.9125 39.2615 17.3596C35.8398 17.6321 35.8398 17.6321 34.8748 17.0732C34.454 16.5315 34.1538 15.9677 33.862 15.3489C33.437 14.4858 33.0027 13.6505 32.1538 13.1461C30.608 12.782 28.9892 12.8932 27.4154 12.9775C27.4154 14.4236 27.4154 15.8697 27.4154 17.3596C26.2985 17.3596 25.1815 17.3596 24.0308 17.3596C24.0308 12.2427 24.0308 7.12585 24.0308 1.85394ZM27.4154 5.05618C27.4154 6.66911 27.4154 8.28203 27.4154 9.94382C28.2373 9.95547 29.059 9.96553 29.8809 9.9716C30.1601 9.97413 30.4393 9.97757 30.7185 9.98197C31.1214 9.98815 31.5242 9.99098 31.9271 9.9932C32.1123 9.99712 32.1123 9.99712 32.3012 10.0011C33.1641 10.0014 33.7554 9.83721 34.5231 9.43821C35.1449 8.81887 35.2578 8.27463 35.3058 7.42627C35.2778 6.53222 35.0821 6.06065 34.4563 5.42816C33.7974 4.9348 33.0401 5.03466 32.2576 5.03973C32.1194 5.03996 31.9811 5.0402 31.8386 5.04045C31.3972 5.04139 30.9558 5.04351 30.5144 5.04565C30.2151 5.0465 29.9157 5.04726 29.6164 5.04795C28.8827 5.04967 28.1491 5.05297 27.4154 5.05618Z" fill="#F8F9FA" fill-opacity="0.75"/>
<path d="M10.4925 1.85394C12.0562 1.85394 13.6199 1.85394 15.231 1.85394C15.4368 2.34342 15.4368 2.34342 15.6468 2.84279C16.5454 4.97925 17.4448 7.11539 18.3512 9.24861C18.4238 9.41978 18.4965 9.59095 18.5714 9.76731C18.9685 10.7019 19.3673 11.6357 19.768 12.5688C19.9891 13.0837 20.2097 13.5989 20.4303 14.114C20.5386 14.3665 20.6471 14.6188 20.7558 14.871C20.9074 15.2228 21.0582 15.5748 21.2089 15.927C21.2963 16.1303 21.3837 16.3337 21.4738 16.5432C21.6617 17.0225 21.6617 17.0225 21.6617 17.3596C20.5448 17.3596 19.4279 17.3596 18.2771 17.3596C18.0817 16.9772 17.8862 16.5948 17.6848 16.2009C17.623 16.0807 17.5611 15.9606 17.4974 15.8369C17.0925 15.0375 17.0925 15.0375 17.0925 14.6629C14.3002 14.6629 11.5079 14.6629 8.63096 14.6629C8.46342 15.1635 8.29588 15.6641 8.12327 16.1798C7.89988 16.5691 7.6765 16.9584 7.44634 17.3596C6.38526 17.3596 5.32419 17.3596 4.23096 17.3596C4.36592 16.5531 4.50719 16.0218 4.82062 15.2903C4.86322 15.19 4.90582 15.0897 4.94971 14.9864C5.08989 14.6569 5.23158 14.3281 5.37326 13.9993C5.4725 13.7667 5.57161 13.5341 5.67062 13.3014C5.87669 12.8173 6.08328 12.3335 6.29023 11.8498C6.72903 10.8231 7.1617 9.79394 7.59434 8.76471C7.73129 8.439 7.8684 8.11334 8.00556 7.78771C8.83796 5.81121 9.66564 3.83275 10.4925 1.85394ZM12.8617 4.88765C12.0754 6.36054 11.3997 7.86646 10.7569 9.40661C10.6809 9.58867 10.6049 9.77073 10.5266 9.95831C10.1634 10.6869 10.1634 10.6869 9.9848 11.4607C11.8836 11.4607 13.7823 11.4607 15.7387 11.4607C15.0899 9.76953 15.0899 9.76953 14.4027 8.09714C14.3214 7.9065 14.2401 7.71585 14.1564 7.51943C14.0747 7.32879 13.993 7.13814 13.9088 6.94172C13.7814 6.64305 13.7814 6.64305 13.6514 6.33834C13.4449 5.85463 13.2381 5.37107 13.031 4.88765C12.9751 4.88765 12.9193 4.88765 12.8617 4.88765Z" fill="#F8F9FA" fill-opacity="0.75"/>
<path d="M105.939 1.85394C107.391 1.85394 108.843 1.85394 110.339 1.85394C110.868 2.90866 111.371 3.93884 111.819 5.02459C111.936 5.30444 112.053 5.58424 112.17 5.86399C112.23 6.00768 112.291 6.15137 112.352 6.29941C112.667 7.04591 112.989 7.78893 113.311 8.53231C113.779 9.61676 114.239 10.7043 114.686 11.7978C115.227 13.1205 115.82 14.415 116.438 15.7045C116.727 16.3316 116.769 16.6326 116.769 17.3596C115.708 17.3596 114.647 17.3596 113.554 17.3596C113.127 16.5203 112.72 15.7055 112.369 14.8315C108.181 14.748 108.181 14.748 103.908 14.6629C103.74 15.1635 103.573 15.6641 103.4 16.1798C102.96 17.1236 102.96 17.1236 102.723 17.3596C102.484 17.3741 102.243 17.3776 102.003 17.376C101.859 17.3755 101.714 17.3749 101.565 17.3744C101.413 17.373 101.261 17.3715 101.105 17.3701C100.952 17.3693 100.8 17.3686 100.643 17.3678C100.264 17.3658 99.886 17.363 99.5078 17.3596C99.6091 16.3915 99.9709 15.5832 100.357 14.7005C100.426 14.5401 100.495 14.3797 100.566 14.2144C100.79 13.6928 101.016 13.1719 101.242 12.651C101.475 12.1126 101.707 11.574 101.939 11.0355C102.093 10.6764 102.248 10.3175 102.403 9.95852C102.858 8.90411 103.308 7.84811 103.752 6.78899C103.802 6.66796 103.853 6.54694 103.905 6.42226C104.092 5.97663 104.278 5.5309 104.463 5.08483C104.586 4.78918 104.71 4.49376 104.833 4.19835C104.934 3.95624 104.934 3.95624 105.037 3.70923C105.316 3.08081 105.63 2.46851 105.939 1.85394ZM108.139 4.88765C107.091 7.04322 106.178 9.24696 105.262 11.4607C107.16 11.4607 109.059 11.4607 111.016 11.4607C110.74 10.6306 110.74 10.6306 110.421 9.82409C110.374 9.71282 110.326 9.60154 110.277 9.4869C110.227 9.37046 110.177 9.25402 110.126 9.13405C110.074 9.01203 110.022 8.89001 109.968 8.7643C109.803 8.37782 109.637 7.99158 109.471 7.60535C109.359 7.34202 109.246 7.07868 109.133 6.81532C108.859 6.17259 108.583 5.53006 108.308 4.88765C108.252 4.88765 108.196 4.88765 108.139 4.88765Z" fill="#F8F9FA" fill-opacity="0.75"/>
<path d="M57.031 1.85394C58.1479 1.85394 59.2648 1.85394 60.4156 1.85394C60.4181 2.19337 60.4205 2.53279 60.4231 2.8825C60.4316 4.00325 60.4429 5.12397 60.4555 6.24468C60.4631 6.92425 60.4697 7.60381 60.4742 8.28341C60.4786 8.93912 60.4855 9.59476 60.494 10.2504C60.4968 10.5007 60.4988 10.751 60.4998 11.0014C60.5014 11.3517 60.5062 11.7018 60.5117 12.0521C60.5135 12.2516 60.5154 12.4511 60.5174 12.6566C60.5437 13.145 60.5437 13.145 60.8221 13.4567C61.4233 13.8901 61.9767 13.8502 62.693 13.8545C62.8808 13.8559 62.8808 13.8559 63.0724 13.8574C63.3377 13.859 63.603 13.8601 63.8684 13.8607C64.2729 13.8624 64.6772 13.8676 65.0817 13.8729C65.3396 13.874 65.5975 13.8749 65.8555 13.8755C65.9759 13.8776 66.0963 13.8797 66.2204 13.8818C66.9643 13.8785 67.4466 13.783 68.031 13.3146C68.2174 12.7577 68.227 12.3327 68.235 11.746C68.2383 11.5267 68.2417 11.3074 68.2452 11.0814C68.2481 10.842 68.2509 10.6026 68.2538 10.3632C68.2573 10.1183 68.2608 9.87342 68.2644 9.62853C68.2738 8.98434 68.2821 8.34014 68.2903 7.69593C68.2988 7.03843 68.3082 6.38093 68.3176 5.72343C68.3358 4.43361 68.3528 3.14378 68.3695 1.85394C69.4864 1.85394 70.6033 1.85394 71.7541 1.85394C71.7694 3.29424 71.7818 4.73447 71.7891 6.17482C71.7927 6.84381 71.7974 7.51274 71.8051 8.1817C71.8126 8.82864 71.8166 9.47553 71.8183 10.1225C71.8195 10.3679 71.822 10.6134 71.8256 10.8588C71.854 12.8254 71.6588 14.5766 70.2416 16.058C68.9651 17.1197 67.6185 17.3844 65.9982 17.3938C65.8032 17.3952 65.8032 17.3952 65.6043 17.3967C65.3296 17.3983 65.0549 17.3994 64.7803 17.4001C64.3651 17.4017 63.95 17.4069 63.5348 17.4122C61.6374 17.4252 59.9146 17.3644 58.4188 16.0554C57.1892 14.7968 56.9028 13.3139 56.916 11.6238C56.9211 11.3737 56.9264 11.1236 56.9318 10.8734C56.9337 10.6118 56.9352 10.3502 56.9362 10.0886C56.94 9.40689 56.95 8.72543 56.9613 8.04383C56.9717 7.34556 56.9763 6.64725 56.9814 5.94892C56.9922 4.58382 57.0101 3.21893 57.031 1.85394Z" fill="#F8F9FA" fill-opacity="0.75"/>
<path d="M40.6152 1.85394C45.2505 1.85394 49.8857 1.85394 54.6614 1.85394C54.6614 2.91068 54.6614 3.96743 54.6614 5.05619C52.8743 5.05619 51.0872 5.05619 49.246 5.05619C49.246 9.1163 49.246 13.1764 49.246 17.3596C48.1291 17.3596 47.0122 17.3596 45.8614 17.3596C45.8614 13.2994 45.8614 9.23934 45.8614 5.05619C44.1302 5.05619 42.3989 5.05619 40.6152 5.05619C40.6152 3.99945 40.6152 2.94271 40.6152 1.85394Z" fill="#F8F9FA" fill-opacity="0.75"/>
<path d="M93.5845 1.85394C94.7014 1.85394 95.8183 1.85394 96.9691 1.85394C96.9691 6.9708 96.9691 12.0877 96.9691 17.3596C95.8522 17.3596 94.7352 17.3596 93.5845 17.3596C93.5845 12.2427 93.5845 7.12585 93.5845 1.85394Z" fill="#F8F9FA" fill-opacity="0.75"/>
<path d="M59.5691 22.5843C59.7925 22.5843 60.0159 22.5843 60.246 22.5843C60.246 24.6422 60.246 26.7 60.246 28.8202C60.0226 28.8202 59.7992 28.8202 59.5691 28.8202C59.5132 28.709 59.4574 28.5978 59.3999 28.4832C59.2323 28.5944 59.0648 28.7056 58.8922 28.8202C58.2175 28.9098 57.9198 28.8437 57.3162 28.5148C56.8614 28.1461 56.8614 28.1461 56.6922 27.6405C56.4943 25.3745 56.4943 25.3745 57.02 24.6278C57.6326 24.2046 57.9812 24.1716 58.7084 24.2012C59.0614 24.2697 59.0614 24.2697 59.5691 24.6068C59.5691 23.9393 59.5691 23.2719 59.5691 22.5843ZM57.5383 25.2809C57.5138 25.7159 57.5067 26.1319 57.5172 26.566C57.5187 26.6851 57.5202 26.8041 57.5218 26.9268C57.5258 27.2209 57.5318 27.515 57.5383 27.809C58.3822 27.9579 58.3822 27.9579 59.22 27.8511C59.6481 27.3861 59.6441 27.1758 59.6749 26.5555C59.6443 25.8973 59.6255 25.687 59.1989 25.165C58.5196 24.8494 58.0921 24.7294 57.5383 25.2809Z" fill="#F8F9FA" fill-opacity="0.75"/>
<path d="M75.1387 24.2697C75.5335 24.2697 75.9284 24.2697 76.3233 24.2697C76.4898 24.255 76.4898 24.255 76.6598 24.24C76.7896 24.2324 76.9194 24.2248 77.0531 24.217C77.1816 24.2072 77.3101 24.1975 77.4425 24.1874C78.0759 24.3164 78.309 24.6046 78.6925 25.1124C78.7737 25.6028 78.8044 25.975 78.7877 26.4607C78.7896 26.5784 78.7914 26.6962 78.7933 26.8175C78.7848 27.4159 78.7047 27.7886 78.3964 28.3047C77.9811 28.6831 77.7963 28.7715 77.2435 28.8097C77.1141 28.8217 76.9848 28.8336 76.8515 28.8459C76.4925 28.8202 76.4925 28.8202 75.9848 28.4832C75.9848 28.9837 75.9848 29.4843 75.9848 30C75.7056 30 75.4264 30 75.1387 30C75.1387 28.109 75.1387 26.218 75.1387 24.2697ZM75.8156 25.7865C75.6971 26.3173 75.6924 26.7732 75.8156 27.3034C76.2592 27.8361 76.5154 27.9575 77.2012 28.0513C77.3582 28.0269 77.5153 28.0026 77.6771 27.9775C78.066 27.3966 78.0659 27.1461 78.0685 26.4607C78.0713 26.2834 78.0742 26.1061 78.0771 25.9235C78.055 25.4494 78.055 25.4494 77.7836 25.1387C77.5072 24.9159 77.5072 24.9159 77.106 24.8596C76.4345 24.9869 76.2101 25.2364 75.8156 25.7865Z" fill="#F8F9FA" fill-opacity="0.75"/>
<path d="M95.8631 24.1966C96.2922 24.2697 96.2922 24.2697 96.7364 24.5857C97.2626 25.3957 97.1383 25.4107 97.1383 26.6292C96.1889 26.6292 95.2395 26.6292 94.2614 26.6292C94.3731 27.0186 94.4848 27.4079 94.5998 27.809C95.1583 27.809 95.7168 27.809 96.2922 27.809C96.348 27.5309 96.4038 27.2528 96.4614 26.9663C96.6848 26.9663 96.9082 26.9663 97.1383 26.9663C97.1096 27.7095 97.0831 28.0406 96.5248 28.5569C95.8685 28.8595 95.4843 28.9109 94.7691 28.8203C94.1702 28.5419 93.955 28.3625 93.5845 27.809C93.538 27.3577 93.5141 26.9332 93.5104 26.4818C93.5049 26.3625 93.4993 26.2432 93.4936 26.1203C93.4868 25.4648 93.5613 25.1439 93.9533 24.6114C94.6225 24.1323 95.0643 24.1613 95.8631 24.1966ZM94.4412 25.1651C94.2163 25.4648 94.2163 25.4648 94.2614 25.9551C94.9874 25.9551 95.7134 25.9551 96.4614 25.9551C96.2155 25.1825 96.2155 25.1825 95.9537 24.9438C95.1541 24.8652 95.1541 24.8652 94.4412 25.1651Z" fill="#F8F9FA" fill-opacity="0.75"/>
<path d="M31.3866 24.1966C31.8156 24.2697 31.8156 24.2697 32.2598 24.5857C32.7861 25.3957 32.6617 25.4107 32.6617 26.6292C31.7124 26.6292 30.763 26.6292 29.7848 26.6292C29.8965 27.0186 30.0082 27.4079 30.1233 27.809C30.6817 27.809 31.2402 27.809 31.8156 27.809C31.8714 27.5309 31.9273 27.2528 31.9848 26.9663C32.2082 26.9663 32.4316 26.9663 32.6617 26.9663C32.5585 28.0565 32.5585 28.0565 32.2598 28.4621C31.6354 28.8926 31.0262 28.8706 30.2925 28.8203C29.6937 28.5419 29.4784 28.3625 29.1079 27.809C29.0614 27.3577 29.0375 26.9332 29.0339 26.4818C29.0283 26.3625 29.0227 26.2432 29.017 26.1203C29.0103 25.4648 29.0847 25.1439 29.4768 24.6114C30.146 24.1323 30.5877 24.1613 31.3866 24.1966ZM29.9646 25.1651C29.7397 25.4648 29.7397 25.4648 29.7848 25.9551C30.5108 25.9551 31.2368 25.9551 31.9848 25.9551C31.739 25.1825 31.739 25.1825 31.4771 24.9438C30.6775 24.8652 30.6775 24.8652 29.9646 25.1651Z" fill="#F8F9FA" fill-opacity="0.75"/>
<path d="M68.7078 24.2696C69.1998 24.5571 69.2765 24.7473 69.554 25.2809C69.554 25.7258 69.554 26.1708 69.554 26.6292C68.6046 26.6292 67.6552 26.6292 66.6771 26.6292C66.7888 27.0185 66.9005 27.4078 67.0155 27.809C67.6979 27.8682 67.6979 27.8682 68.3694 27.809C68.7217 27.4121 68.7217 27.4121 68.8771 26.9663C69.1005 27.0219 69.3238 27.0775 69.554 27.1348C69.4728 27.8622 69.2659 28.1801 68.7078 28.6517C68.1696 28.9197 67.5937 28.9532 67.0155 28.8202C66.0759 28.2519 66.0759 28.2519 65.9055 27.6347C65.8694 27.2351 65.8698 26.851 65.8838 26.4501C65.8813 26.3149 65.8788 26.1796 65.8762 26.0403C65.8859 25.3567 65.9099 25.0468 66.3723 24.5192C67.1495 24.11 67.8528 24.1037 68.7078 24.2696ZM66.6771 25.2809C66.6771 25.5034 66.6771 25.7258 66.6771 25.955C67.3472 25.955 68.0174 25.955 68.7078 25.955C68.6325 25.1747 68.6325 25.1747 68.3694 24.9438C67.4679 24.8867 67.4679 24.8867 66.6771 25.2809Z" fill="#F8F9FA" fill-opacity="0.75"/>
<path d="M24.5386 22.5843C24.762 22.5843 24.9853 22.5843 25.2155 22.5843C25.2155 23.2517 25.2155 23.9191 25.2155 24.6068C25.383 24.4955 25.5506 24.3843 25.7232 24.2697C26.4591 24.1536 27.0568 24.1329 27.6693 24.5752C28.055 25.1352 28.1132 25.575 28.1089 26.2362C28.1084 26.3866 28.1079 26.5371 28.1073 26.6921C28.1059 26.8486 28.1045 27.0052 28.103 27.1665C28.1022 27.3249 28.1015 27.4834 28.1007 27.6467C28.0987 28.0379 28.0959 28.4291 28.0924 28.8202C27.8132 28.8202 27.534 28.8202 27.2463 28.8202C27.242 28.7139 27.2378 28.6076 27.2334 28.498C27.2139 28.019 27.1931 27.5401 27.1722 27.0611C27.1656 26.8937 27.1589 26.7263 27.1521 26.5539C27.1414 26.3151 27.1414 26.3151 27.1306 26.0716C27.1244 25.9242 27.1182 25.7768 27.1118 25.625C27.114 25.2821 27.114 25.2821 26.9078 25.1124C26.4432 25.0624 26.1339 25.0815 25.7027 25.2658C25.1832 25.8413 25.2699 26.5028 25.2578 27.2507C25.2528 27.4012 25.2478 27.5516 25.2426 27.7066C25.2306 28.0779 25.2217 28.4489 25.2155 28.8202C24.9921 28.8202 24.7687 28.8202 24.5386 28.8202C24.5386 26.7624 24.5386 24.7045 24.5386 22.5843Z" fill="#F8F9FA" fill-opacity="0.75"/>
<path d="M45.6923 24.2697C46.3485 24.7053 46.3485 24.7053 46.5384 25.2809C46.6776 26.454 46.7556 27.4979 46.0308 28.4831C45.5281 28.8725 44.9728 28.9001 44.3444 28.8861C43.7194 28.7666 43.4184 28.4307 42.9846 27.9775C42.8134 27.466 42.7873 27.1016 42.7836 26.566C42.7812 26.4083 42.7788 26.2506 42.7764 26.088C42.8324 25.4129 42.9687 24.9589 43.4559 24.4757C44.1663 24.0852 44.909 24.1369 45.6923 24.2697ZM43.6615 25.2809C43.5867 25.8344 43.5867 25.8344 43.6086 26.4607C43.6096 26.7787 43.6096 26.7787 43.6106 27.1032C43.6052 27.656 43.6052 27.656 44 27.9775C44.3232 28.0311 44.3232 28.0311 44.6769 28.0197C44.7956 28.0205 44.9143 28.0214 45.0365 28.0223C45.3951 28.004 45.3951 28.004 45.6923 27.6405C45.7465 27.0864 45.7465 27.0864 45.7346 26.4607C45.7355 26.2486 45.7363 26.0366 45.7372 25.8181C45.7495 25.2653 45.7495 25.2653 45.3538 24.9438C44.62 24.8907 44.2832 24.8682 43.6615 25.2809Z" fill="#F8F9FA" fill-opacity="0.75"/>
<path d="M40.9538 24.2697C41.3478 24.4935 41.3478 24.4935 41.6307 24.7753C41.673 25.3125 41.673 25.3125 41.6307 25.7865C41.4073 25.7865 41.1839 25.7865 40.9538 25.7865C40.9538 25.564 40.9538 25.3416 40.9538 25.1124C40.4512 25.1124 39.9486 25.1124 39.4307 25.1124C39.3749 25.2792 39.319 25.4461 39.2615 25.618C39.4725 25.6792 39.4725 25.6792 39.6879 25.7417C39.8718 25.7982 40.0557 25.8547 40.2451 25.9129C40.4277 25.9677 40.6103 26.0224 40.7984 26.0788C41.3317 26.3092 41.5243 26.4635 41.7999 26.9663C41.9083 27.9918 41.9083 27.9918 41.5778 28.4621C40.9198 28.8989 40.1941 28.9049 39.4307 28.8202C38.8239 28.5443 38.6196 28.3669 38.2461 27.809C38.2461 27.5865 38.2461 27.364 38.2461 27.1348C38.5253 27.1348 38.8046 27.1348 39.0922 27.1348C39.1481 27.3573 39.2039 27.5798 39.2615 27.809C39.8199 27.809 40.3784 27.809 40.9538 27.809C40.8979 27.5865 40.8421 27.364 40.7846 27.1348C40.3281 26.8794 40.3281 26.8794 39.7797 26.6924C38.7825 26.3207 38.7825 26.3207 38.4153 25.9551C38.3401 25.3805 38.3543 25.0538 38.6374 24.5435C39.3561 24.1108 40.1355 24.1366 40.9538 24.2697Z" fill="#F8F9FA" fill-opacity="0.75"/>
<path d="M105.431 24.2697C105.886 24.5541 105.886 24.5541 106.108 24.9438C106.15 25.4073 106.15 25.4073 106.108 25.7865C105.884 25.7865 105.661 25.7865 105.431 25.7865C105.431 25.5641 105.431 25.3416 105.431 25.1124C104.817 25.1124 104.202 25.1124 103.569 25.1124C103.625 25.2792 103.681 25.4461 103.739 25.618C104.238 25.8485 104.238 25.8485 104.828 26.0393C105.902 26.4055 105.902 26.4055 106.277 26.9663C106.371 28.0126 106.371 28.0126 106.055 28.4621C105.397 28.899 104.671 28.9049 103.908 28.8202C103.301 28.5444 103.097 28.3669 102.723 27.809C102.723 27.5865 102.723 27.3641 102.723 27.1348C103.002 27.1348 103.282 27.1348 103.569 27.1348C103.625 27.3573 103.681 27.5798 103.739 27.809C104.297 27.809 104.855 27.809 105.431 27.809C105.375 27.5865 105.319 27.3641 105.262 27.1348C104.805 26.8795 104.805 26.8795 104.257 26.6924C103.26 26.3207 103.26 26.3207 102.892 25.9551C102.829 25.3757 102.829 25.3757 102.892 24.7753C103.607 24.0572 104.481 24.1404 105.431 24.2697Z" fill="#F8F9FA" fill-opacity="0.75"/>
<path d="M52.123 24.2697C52.5179 24.2697 52.9128 24.2697 53.3077 24.2697C53.4207 24.2619 53.5337 24.254 53.6501 24.246C54.7319 24.1959 54.7319 24.1959 55.2538 24.5857C55.6408 25.1317 55.6974 25.4263 55.6934 26.0881C55.6929 26.2467 55.6923 26.4053 55.6918 26.5687C55.6903 26.7347 55.6889 26.9006 55.6875 27.0716C55.6867 27.2389 55.6859 27.4062 55.6852 27.5786C55.6832 27.9925 55.6804 28.4064 55.6769 28.8202C55.3977 28.8202 55.1184 28.8202 54.8307 28.8202C54.8265 28.7139 54.8223 28.6076 54.8179 28.498C54.7983 28.019 54.7775 27.5401 54.7567 27.0611C54.75 26.8937 54.7434 26.7263 54.7365 26.5539C54.7259 26.3151 54.7259 26.3151 54.7151 26.0716C54.7089 25.9242 54.7026 25.7768 54.6963 25.625C54.6984 25.2821 54.6984 25.2821 54.4923 25.1124C53.9674 25.0417 53.7236 25.0596 53.2819 25.3606C52.8255 25.9823 52.8945 26.5126 52.9269 27.2613C52.9299 27.3949 52.933 27.5285 52.9361 27.6661C52.9441 27.9948 52.9562 28.3233 52.9692 28.6517C52.69 28.7073 52.4107 28.7629 52.123 28.8202C52.123 27.3186 52.123 25.8169 52.123 24.2697Z" fill="#F8F9FA" fill-opacity="0.75"/>
<path d="M79.7075 22.5843C80.4335 22.5843 81.1595 22.5843 81.9075 22.5843C81.9075 24.3641 81.9075 26.1438 81.9075 27.9775C82.3543 27.9775 82.8011 27.9775 83.2614 27.9775C83.2614 28.2556 83.2614 28.5337 83.2614 28.8202C82.0886 28.8202 80.9158 28.8202 79.7075 28.8202C79.7075 28.5422 79.7075 28.2641 79.7075 27.9775C80.1543 27.9775 80.6011 27.9775 81.0614 27.9775C81.0614 26.4202 81.0614 24.8629 81.0614 23.2584C80.6146 23.2584 80.1678 23.2584 79.7075 23.2584C79.7075 23.036 79.7075 22.8135 79.7075 22.5843Z" fill="#F8F9FA" fill-opacity="0.75"/>
<path d="M47.5537 24.2697C47.7771 24.2697 48.0004 24.2697 48.2306 24.2697C48.2348 24.3649 48.2391 24.4601 48.2435 24.5583C48.2631 24.9888 48.2838 25.4192 48.3046 25.8497C48.3113 25.9996 48.3179 26.1495 48.3248 26.304C48.3319 26.4474 48.339 26.5908 48.3463 26.7385C48.3525 26.8709 48.3587 27.0033 48.3651 27.1397C48.3814 27.4846 48.3814 27.4846 48.5691 27.809C49.3796 27.8485 49.3796 27.8485 50.0921 27.4719C50.1778 27.131 50.1778 27.131 50.1787 26.7385C50.1847 26.5951 50.1907 26.4517 50.1969 26.304C50.2007 26.1541 50.2046 26.0042 50.2085 25.8497C50.2143 25.6985 50.22 25.5473 50.226 25.3915C50.24 25.0176 50.2517 24.6437 50.2614 24.2697C50.5406 24.2697 50.8198 24.2697 51.1075 24.2697C51.1075 25.7713 51.1075 27.273 51.1075 28.8202C50.8283 28.8202 50.5491 28.8202 50.2614 28.8202C50.2614 28.709 50.2614 28.5977 50.2614 28.4831C50.0938 28.5944 49.9263 28.7056 49.7537 28.8202C49.3947 28.8459 49.3947 28.8459 49.0027 28.8097C48.8738 28.8008 48.7449 28.7919 48.612 28.7827C48.0224 28.5802 47.8572 28.3536 47.5537 27.809C47.4732 27.1989 47.4898 26.6006 47.5114 25.9866C47.5144 25.8216 47.5175 25.6566 47.5206 25.4866C47.5286 25.0808 47.5397 24.6753 47.5537 24.2697Z" fill="#F8F9FA" fill-opacity="0.75"/>
<path d="M86.0433 24.1854C86.2786 24.1828 86.2786 24.1828 86.5186 24.1801C87.1484 24.3011 87.4095 24.4583 87.8308 24.9438C87.9501 25.4528 87.9414 25.9403 87.926 26.4607C87.9278 26.5967 87.9297 26.7327 87.9316 26.8728C87.9235 27.5267 87.9146 27.8682 87.5075 28.3989C86.945 28.801 86.5365 28.8569 85.845 28.9084C85.2365 28.7684 84.8115 28.4704 84.4462 27.9775C84.3083 27.463 84.319 26.9796 84.3404 26.4501C84.3393 26.3149 84.3382 26.1796 84.3371 26.0403C84.3486 25.4124 84.3766 25.0468 84.7337 24.5179C85.2056 24.2171 85.4855 24.1792 86.0433 24.1854ZM85.1231 25.2809C85.0689 25.835 85.0689 25.835 85.0808 26.4607C85.0799 26.6727 85.079 26.8847 85.0782 27.1032C85.0659 27.6561 85.0659 27.6561 85.4616 27.9775C85.7848 28.031 85.7848 28.031 86.1385 28.0197C86.2572 28.0205 86.3758 28.0214 86.4981 28.0223C86.8566 28.004 86.8566 28.004 87.1539 27.6404C87.2081 27.0863 87.2081 27.0863 87.1962 26.4607C87.1971 26.2486 87.1979 26.0366 87.1988 25.8181C87.211 25.2652 87.211 25.2652 86.8154 24.9438C86.4922 24.8903 86.4922 24.8903 86.1385 24.9017C86.0198 24.9008 85.9011 24.8999 85.7789 24.899C85.4203 24.9173 85.4203 24.9173 85.1231 25.2809Z" fill="#F8F9FA" fill-opacity="0.75"/>
<path d="M70.5693 24.1011C71.0895 24.2071 71.4718 24.2906 71.8029 24.7233C71.9675 25.0153 72.1158 25.3163 72.2616 25.618C72.3251 25.5226 72.3886 25.4272 72.454 25.329C73.1702 24.3067 73.1702 24.3067 73.7636 24.1011C73.8822 24.1011 74.0009 24.1011 74.1232 24.1011C73.9927 24.8452 73.5756 25.315 73.1217 25.9017C72.8892 26.2891 72.8892 26.2891 73.0503 26.7174C73.3263 27.2255 73.6302 27.7036 73.95 28.1849C74.1232 28.4832 74.1232 28.4832 74.1232 28.8202C73.6578 28.8097 73.6578 28.8097 73.1078 28.6517C72.8091 28.2767 72.6385 27.9094 72.4309 27.4719C72.0806 27.8087 71.7709 28.1208 71.5001 28.5253C71.4163 28.6226 71.3326 28.72 71.2463 28.8202C71.0229 28.8202 70.7995 28.8202 70.5693 28.8202C70.6809 28.2185 70.9353 27.7791 71.2568 27.2612C71.3495 27.1109 71.4423 26.9606 71.5378 26.8057C71.6448 26.6349 71.6448 26.6349 71.754 26.4607C71.6684 26.3327 71.5829 26.2048 71.4948 26.0729C71.3849 25.9054 71.2749 25.7379 71.1616 25.5653C71.0517 25.3991 70.9417 25.2329 70.8285 25.0617C70.5693 24.6068 70.5693 24.6068 70.5693 24.1011Z" fill="#F8F9FA" fill-opacity="0.75"/>
<path d="M19.9692 22.5843C21.0862 22.5843 22.2031 22.5843 23.3539 22.5843C23.3539 22.8624 23.3539 23.1405 23.3539 23.427C22.9071 23.427 22.4603 23.427 22 23.427C22 25.2068 22 26.9865 22 28.8202C21.7766 28.8202 21.5532 28.8202 21.3231 28.8202C21.3231 27.0405 21.3231 25.2607 21.3231 23.427C20.8763 23.427 20.4295 23.427 19.9692 23.427C19.9692 23.1489 19.9692 22.8708 19.9692 22.5843Z" fill="#F8F9FA" fill-opacity="0.75"/>
<path d="M98.1538 24.2697C98.5727 24.3531 98.5727 24.3531 99 24.4382C99 24.5494 99 24.6607 99 24.7753C99.1186 24.6919 99.2373 24.6084 99.3596 24.5225C99.9328 24.2246 100.224 24.1639 100.862 24.2697C101.348 24.6278 101.348 24.6278 101.708 25.1124C101.761 25.6706 101.761 25.6706 101.708 26.1236C101.484 26.1236 101.261 26.1236 101.031 26.1236C100.985 25.988 100.94 25.8525 100.893 25.7128C100.827 25.5703 100.761 25.4277 100.692 25.2809C100.525 25.2253 100.357 25.1697 100.185 25.1124C99.8408 25.329 99.5021 25.5537 99.1692 25.7865C99.0575 25.7865 98.9458 25.7865 98.8307 25.7865C98.8866 25.8978 98.9424 26.009 99 26.1236C99.0121 26.5536 99.0157 26.9789 99.0105 27.4087C99.0098 27.5278 99.009 27.6468 99.0082 27.7695C99.0062 28.0636 99.0032 28.3576 99 28.6517C98.7207 28.7073 98.4415 28.7629 98.1538 28.8202C98.1538 27.3185 98.1538 25.8169 98.1538 24.2697Z" fill="#F8F9FA" fill-opacity="0.75"/>
<path d="M89.0156 24.2696C89.239 24.2696 89.4624 24.2696 89.6925 24.2696C89.7484 24.4365 89.8042 24.6034 89.8618 24.7753C89.949 24.6918 90.0363 24.6084 90.1262 24.5225C90.695 24.1738 91.0666 24.1879 91.7233 24.2696C92.1252 24.533 92.1252 24.533 92.4002 24.9438C92.5272 25.5758 92.5272 25.5758 92.5695 26.1236C92.2902 26.1236 92.011 26.1236 91.7233 26.1236C91.6116 25.7899 91.4999 25.4562 91.3849 25.1123C90.7787 25.2241 90.3358 25.388 89.8618 25.7865C89.7291 26.3001 89.728 26.8067 89.7243 27.335C89.72 27.4774 89.7158 27.6198 89.7114 27.7665C89.7014 28.1177 89.6965 28.4689 89.6925 28.8202C89.4692 28.8202 89.2458 28.8202 89.0156 28.8202C89.0156 27.3185 89.0156 25.8168 89.0156 24.2696Z" fill="#F8F9FA" fill-opacity="0.75"/>
<path d="M14.7231 28.9888C16.2868 28.9888 17.8505 28.9888 19.4616 28.9888C19.4616 29.2112 19.4616 29.4337 19.4616 29.6629C17.8979 29.6629 16.3342 29.6629 14.7231 29.6629C14.7231 29.4405 14.7231 29.218 14.7231 28.9888Z" fill="#F8F9FA" fill-opacity="0.75"/>
</g>
<defs>
<clipPath id="clip0_195_1233">
<rect width="121" height="30" fill="white"/>
</clipPath>
</defs>
</svg>
