<svg width="61" height="64" viewBox="0 0 61 64" fill="none" xmlns="http://www.w3.org/2000/svg">
<path d="M30.3569 33.2477C26.519 33.2477 23.3984 30.1013 23.3984 26.2316C23.3984 22.362 26.519 19.2156 30.3569 19.2156C34.1948 19.2156 37.3153 22.362 37.3153 26.2316C37.3153 30.1013 34.1828 33.2477 30.3569 33.2477ZM30.3569 21.277C27.6429 21.277 25.431 23.5072 25.431 26.2437C25.431 28.9802 27.6429 31.2104 30.3569 31.2104C33.0709 31.2104 35.2828 28.9802 35.2828 26.2437C35.2828 23.5072 33.0709 21.277 30.3569 21.277Z" fill="#F8F9FA" fill-opacity="0.75"/>
<path d="M38.8339 32.5003C38.6546 32.5003 38.4752 32.4521 38.3079 32.3436C37.8296 32.0542 37.6861 31.4153 37.9731 30.9452C38.8339 29.5348 39.2883 27.9073 39.2883 26.2437C39.2883 21.2771 35.283 17.2387 30.3571 17.2387C25.4311 17.2387 21.4259 21.2771 21.4259 26.2437C21.4259 27.9073 21.8802 29.5348 22.741 30.9452C23.028 31.4274 22.8845 32.0542 22.4063 32.3436C21.928 32.6329 21.3063 32.4882 21.0193 32.006C19.9672 30.2701 19.4053 28.281 19.4053 26.2317C19.4053 20.1439 24.3192 15.1772 30.369 15.1772C36.4188 15.1772 41.3328 20.1319 41.3328 26.2317C41.3328 28.281 40.7708 30.2701 39.7187 32.006C39.5035 32.3315 39.1807 32.5003 38.8339 32.5003Z" fill="#F8F9FA" fill-opacity="0.75"/>
<path d="M43.3053 32.5003C43.1738 32.5003 43.0542 32.4761 42.9227 32.4279C42.4086 32.223 42.1575 31.6202 42.3608 31.1019C42.9705 29.5588 43.2934 27.9194 43.2934 26.2437C43.2934 19.0469 37.4827 13.2002 30.3569 13.2002C27.7146 13.2002 25.1679 13.9958 22.9919 15.5148C20.8757 16.9975 19.2496 19.0469 18.3051 21.4579C18.1019 21.9883 17.516 22.2414 16.9899 22.0365C16.4639 21.8316 16.2128 21.2409 16.4161 20.7105C17.5041 17.9258 19.3812 15.5509 21.8322 13.8391C24.3429 12.0911 27.2841 11.1629 30.3449 11.1629C38.5946 11.1629 45.3139 17.9378 45.3139 26.2558C45.3139 28.1966 44.9553 30.0893 44.2379 31.8734C44.0944 32.2591 43.7118 32.5003 43.3053 32.5003Z" fill="#F8F9FA" fill-opacity="0.75"/>
<path d="M13.9646 49.6304L14.1081 49.7509C14.8733 50.4019 15.782 50.7394 16.8102 50.7394C18.9862 50.7394 21.3057 49.0156 21.3057 45.8331C21.3057 42.6505 18.9862 40.9387 16.8102 40.9387C15.7939 40.9387 14.8852 41.2883 14.1081 41.9755L13.9646 42.1081V38.7568L11.8604 39.1064V50.5586H13.9646V49.6304ZM16.5711 48.7504C15.2559 48.7504 13.9048 47.6534 13.9048 45.8331C13.9048 44.0128 15.2559 42.9278 16.5711 42.9278C17.8504 42.9278 19.1536 43.9284 19.1536 45.8451C19.1655 47.581 18.1253 48.7504 16.5711 48.7504Z" fill="#F8F9FA" fill-opacity="0.75"/>
<path d="M41.8344 40.9267C39.6584 40.9267 37.3389 42.6506 37.3389 45.8331C37.3389 49.0156 39.6584 50.7274 41.8344 50.7274C42.8506 50.7274 43.7593 50.3778 44.5364 49.6907L44.6799 49.5581V50.426H46.7842V41.1075H44.6799V42.0358L44.5364 41.9152C43.7712 41.2642 42.8626 40.9267 41.8344 40.9267ZM42.0615 48.7504C40.7822 48.7504 39.479 47.7498 39.479 45.8331C39.479 44.0972 40.5192 42.9278 42.0615 42.9278C43.3767 42.9278 44.7277 44.0248 44.7277 45.8451C44.7277 47.6534 43.3767 48.7504 42.0615 48.7504Z" fill="#F8F9FA" fill-opacity="0.75"/>
<path d="M34.1584 50.5466H36.2627V44.8084C36.2627 42.4456 34.8519 40.9267 32.6758 40.9267C31.5161 40.9267 30.5477 41.3607 29.7825 42.2166L29.7107 42.301L29.639 42.2166C28.9934 41.3727 28.0608 40.9267 26.925 40.9267C26.0641 40.9267 25.3468 41.1799 24.737 41.6862L24.5935 41.8067V41.1075H22.4893V50.5466H24.5935V45.2183C24.5935 43.8922 25.4185 42.9278 26.5543 42.9278C27.6782 42.9278 28.3358 43.7114 28.3358 45.0736V50.5466H30.4281V45.1701C30.4281 43.832 31.2053 42.9278 32.365 42.9278C33.5486 42.9278 34.1584 43.6632 34.1584 45.0977V50.5466Z" fill="#F8F9FA" fill-opacity="0.75"/>
<path d="M48.3145 39.1064V47.8583C48.3145 49.6666 49.3427 50.7033 51.1361 50.7033C51.4111 50.7033 51.6622 50.6792 51.9132 50.631V48.654H51.9013C51.7459 48.6901 51.5904 48.7022 51.423 48.7022C50.7057 48.7022 50.4068 48.4129 50.4068 47.6896V43.0846H51.9611V41.1075H50.4068V38.7448L48.3145 39.1064Z" fill="#F8F9FA" fill-opacity="0.75"/>
<path d="M13.1277 55.6821H13.1157L12.1473 54.2475V56.4174H11.8604V53.7412H12.1593L13.1277 55.1999L14.0961 53.7412H14.395V56.4174H14.0961V54.2475L13.1277 55.6821Z" fill="#F8F9FA" fill-opacity="0.75"/>
<path d="M17.3964 55.2722C17.3964 56.0558 16.9541 56.4536 16.2845 56.4536C15.6269 56.4536 15.1846 56.0437 15.1846 55.2843V53.7292H15.4835V55.2722C15.4835 55.8509 15.7824 56.1764 16.2965 56.1764C16.7867 56.1764 17.0975 55.875 17.0975 55.2963V53.7412H17.3964V55.2722Z" fill="#F8F9FA" fill-opacity="0.75"/>
<path d="M19.1417 54.9347C19.7395 55.0673 20.0025 55.2843 20.0025 55.6941C20.0025 56.1522 19.6199 56.4536 19.0939 56.4536C18.6754 56.4536 18.3287 56.3089 18.0059 56.0196L18.1972 55.8026C18.4721 56.0558 18.7352 56.1763 19.1058 56.1763C19.4645 56.1763 19.7036 55.9834 19.7036 55.7182C19.7036 55.4651 19.5721 55.3204 19.0102 55.1999C18.4004 55.0673 18.1135 54.8623 18.1135 54.4283C18.1135 53.9944 18.4841 53.693 18.9863 53.693C19.3689 53.693 19.6558 53.8015 19.9188 54.0185L19.7395 54.2475C19.4884 54.0426 19.2493 53.9582 18.9743 53.9582C18.6276 53.9582 18.4124 54.1511 18.4124 54.3922C18.4124 54.6695 18.5558 54.8141 19.1417 54.9347Z" fill="#F8F9FA" fill-opacity="0.75"/>
<path d="M21.0186 53.7412V56.4174H20.7197V53.7412H21.0186Z" fill="#F8F9FA" fill-opacity="0.75"/>
<path d="M23.0869 56.4656C22.3217 56.4656 21.7598 55.8508 21.7598 55.0793C21.7598 54.3078 22.3217 53.693 23.0988 53.693C23.5771 53.693 23.864 53.8618 24.139 54.1149L23.9358 54.3319C23.7086 54.1149 23.4575 53.9703 23.0988 53.9703C22.513 53.9703 22.0706 54.4525 22.0706 55.0673C22.0706 55.6821 22.513 56.1763 23.0988 56.1763C23.4575 56.1763 23.7086 56.0317 23.9597 55.7906L24.1629 55.9834C23.876 56.2848 23.5651 56.4656 23.0869 56.4656Z" fill="#F8F9FA" fill-opacity="0.75"/>
<path d="M26.2911 53.7412V56.4174H25.9922V53.7412H26.2911Z" fill="#F8F9FA" fill-opacity="0.75"/>
<path d="M29.1014 53.7412H29.3884V56.4174H29.1492L27.4276 54.2234V56.4174H27.1406V53.7412H27.4276L29.1014 55.887V53.7412Z" fill="#F8F9FA" fill-opacity="0.75"/>
<path d="M32.1854 53.7412H32.4724V56.4174H32.2332L30.5116 54.2234V56.4174H30.2246V53.7412H30.5116L32.1854 55.887V53.7412Z" fill="#F8F9FA" fill-opacity="0.75"/>
<path d="M34.5288 56.4656C33.7158 56.4656 33.1777 55.8267 33.1777 55.0793C33.1777 54.3319 33.7277 53.693 34.5407 53.693C35.3537 53.693 35.8918 54.3319 35.8918 55.0793C35.8918 55.8267 35.3418 56.4656 34.5288 56.4656ZM34.5288 53.9703C33.919 53.9703 33.4886 54.4645 33.4886 55.0673C33.4886 55.67 33.931 56.1763 34.5407 56.1763C35.1505 56.1763 35.5809 55.6821 35.5809 55.0793C35.5809 54.4766 35.1385 53.9703 34.5288 53.9703Z" fill="#F8F9FA" fill-opacity="0.75"/>
<path d="M38.4506 53.7412H38.7734L37.6257 56.4415H37.3626L36.2148 53.7412H36.5496L37.4941 56.0558L38.4506 53.7412Z" fill="#F8F9FA" fill-opacity="0.75"/>
<path d="M41.4638 56.4174H41.141L40.8301 55.7062H39.3834L39.0726 56.4174H38.7617L39.9693 53.7171H40.2562L41.4638 56.4174ZM40.1128 54.0788L39.503 55.441H40.7106L40.1128 54.0788Z" fill="#F8F9FA" fill-opacity="0.75"/>
<path d="M42.7308 56.4174H42.4319V54.0185H41.5352V53.7412H43.6275V54.0185H42.7308V56.4174Z" fill="#F8F9FA" fill-opacity="0.75"/>
<path d="M45.3139 56.4656C44.5009 56.4656 43.9629 55.8267 43.9629 55.0793C43.9629 54.3319 44.5129 53.693 45.3259 53.693C46.1389 53.693 46.6769 54.3319 46.6769 55.0793C46.6769 55.8267 46.1269 56.4656 45.3139 56.4656ZM45.3139 53.9703C44.7042 53.9703 44.2737 54.4645 44.2737 55.0673C44.2737 55.67 44.7161 56.1763 45.3259 56.1763C45.9356 56.1763 46.3661 55.6821 46.3661 55.0793C46.3661 54.4766 45.9237 53.9703 45.3139 53.9703Z" fill="#F8F9FA" fill-opacity="0.75"/>
<path d="M49.2111 56.4174L48.4459 55.3807H47.6807V56.4174H47.3818V53.7412H48.5296C49.1155 53.7412 49.4861 54.0546 49.4861 54.5368C49.4861 54.9829 49.1872 55.2481 48.7687 55.3204L49.5818 56.4174H49.2111ZM48.5057 54.0185H47.6807V55.1034H48.4938C48.8883 55.1034 49.1753 54.8985 49.1753 54.5489C49.1872 54.2234 48.9361 54.0185 48.5057 54.0185Z" fill="#F8F9FA" fill-opacity="0.75"/>
<path d="M51.1602 54.9347C51.758 55.0673 52.0211 55.2843 52.0211 55.6941C52.0211 56.1522 51.6385 56.4536 51.1124 56.4536C50.694 56.4536 50.3472 56.3089 50.0244 56.0196L50.2157 55.8026C50.4907 56.0558 50.7537 56.1763 51.1244 56.1763C51.4831 56.1763 51.7222 55.9834 51.7222 55.7182C51.7222 55.4651 51.5907 55.3204 51.0287 55.1999C50.419 55.0673 50.132 54.8623 50.132 54.4283C50.132 53.9944 50.5027 53.693 51.0048 53.693C51.3874 53.693 51.6744 53.8015 51.9374 54.0185L51.758 54.2475C51.507 54.0426 51.2678 53.9582 50.9929 53.9582C50.6461 53.9582 50.4309 54.1511 50.4309 54.3922C50.4429 54.6695 50.5744 54.8141 51.1602 54.9347Z" fill="#F8F9FA" fill-opacity="0.75"/>
</svg>
