<svg width="151" height="52" viewBox="0 0 151 52" fill="none" xmlns="http://www.w3.org/2000/svg">
<path d="M20.9336 6.63831C21.5964 6.81118 21.5964 6.81118 22.3291 7.1915C23.0015 8.67161 23.0871 10.2604 23.2471 11.8569C23.2773 12.1431 23.3075 12.4293 23.3386 12.7242C23.4342 13.6342 23.5271 14.5445 23.62 15.4548C23.6845 16.0736 23.7492 16.6923 23.8141 17.311C23.9723 18.8242 24.1285 20.3375 24.2829 21.8511C24.3123 21.6864 24.3418 21.5217 24.3721 21.352C24.5074 20.6072 24.648 19.8635 24.7888 19.1197C24.835 18.8605 24.8813 18.6013 24.9289 18.3342C24.9766 18.0864 25.0242 17.8386 25.0734 17.5833C25.1157 17.3544 25.1581 17.1256 25.2018 16.8898C25.3994 16.3192 25.3994 16.3192 26.2367 15.766C26.9519 15.7833 26.9519 15.7833 27.6323 16.0426C28.3355 17.2901 28.3388 18.6467 28.4282 20.0413C28.4549 20.4159 28.4549 20.4159 28.4821 20.7982C28.5382 21.5927 28.5912 22.3874 28.644 23.1822C28.6816 23.7222 28.7194 24.2623 28.7574 24.8023C28.85 26.1234 28.9396 27.4446 29.0278 28.766C29.0679 28.5055 29.0679 28.5055 29.1088 28.2397C29.3876 26.4312 29.6687 24.623 29.9512 22.815C30.0562 22.1404 30.1607 21.4656 30.2646 20.7908C30.4141 19.8204 30.5657 18.8504 30.7178 17.8804C30.7867 17.4283 30.7867 17.4283 30.857 16.967C30.924 16.5435 30.924 16.5435 30.9924 16.1115C31.0308 15.864 31.0692 15.6165 31.1088 15.3614C31.4893 13.6032 31.4893 13.6032 32.0981 13C32.918 12.9309 32.918 12.9309 33.7727 13C34.4256 13.9705 34.5292 14.8121 34.6809 15.9388C34.7105 16.1444 34.74 16.35 34.7704 16.5619C34.8644 17.2183 34.9554 17.8751 35.0462 18.5319C35.1384 19.1887 35.2313 19.8454 35.325 20.502C35.3831 20.9104 35.4403 21.3189 35.4964 21.7275C35.611 22.5413 35.7427 23.2821 36.0056 24.0638C36.1217 23.7093 36.1217 23.7093 36.2401 23.3475C36.3917 22.8892 36.3917 22.8892 36.5464 22.4216C36.6468 22.1167 36.7472 21.8119 36.8506 21.4978C37.1221 20.7447 37.1221 20.7447 37.4012 20.4681C38.0524 20.4568 38.7038 20.4564 39.355 20.4681C39.929 21.554 40.3847 22.6161 40.7506 23.7872C40.8819 23.6707 41.0132 23.5541 41.1485 23.4339C41.3223 23.2824 41.4961 23.1309 41.6751 22.9747C41.8467 22.8239 42.0184 22.6731 42.1952 22.5177C43.246 21.7128 44.2704 21.8222 45.5478 21.8338C45.9029 21.8363 46.258 21.8388 46.6239 21.8413C47.0325 21.8462 47.0325 21.8462 47.4493 21.8511C47.4431 21.5501 47.437 21.2492 47.4307 20.9392C47.4519 19.7687 47.6075 19.2105 48.2866 18.2553C49.8661 17.297 51.2048 17.3511 53.0315 17.4255C53.0315 18.4296 53.0315 19.4336 53.0315 20.4681C52.3868 20.4681 51.742 20.4681 51.0777 20.4681C50.9856 20.9245 50.8935 21.3809 50.7986 21.8511C51.5355 21.8511 52.2723 21.8511 53.0315 21.8511C53.0315 22.6726 53.0315 23.4941 53.0315 24.3404C52.2947 24.3404 51.5578 24.3404 50.7986 24.3404C50.7986 27.5351 50.7986 30.7298 50.7986 34.0213C49.6933 34.0213 48.588 34.0213 47.4493 34.0213C47.4493 30.8266 47.4493 27.6319 47.4493 24.3404C44.3866 24.3102 44.3866 24.3102 43.2626 25.2048C42.8305 25.8203 42.5143 26.3739 42.181 27.0372C41.5879 27.9362 41.5879 27.9362 40.5936 28.2474C39.6341 28.2128 39.6341 28.2128 39.1282 27.8497C39.0188 27.6957 38.9095 27.5417 38.7968 27.383C38.6126 27.2004 38.4283 27.0179 38.2385 26.8298C38.1475 27.1628 38.0565 27.4958 37.9627 27.8389C37.8397 28.2748 37.7165 28.7105 37.5931 29.1463C37.5336 29.3659 37.474 29.5856 37.4127 29.8118C37.3524 30.0222 37.2921 30.2326 37.23 30.4493C37.1759 30.6434 37.1219 30.8375 37.0661 31.0375C36.843 31.5319 36.843 31.5319 36.0056 32.0851C35.2904 32.0333 35.2904 32.0333 34.6101 31.8085C33.9917 30.8894 33.9071 30.3474 33.7531 29.2641C33.6803 28.7627 33.6803 28.7627 33.6059 28.2511C33.5331 27.7273 33.5331 27.7273 33.4587 27.1928C33.408 26.8404 33.3573 26.4879 33.305 26.1248C33.1799 25.2537 33.0568 24.3823 32.9354 23.5106C32.4334 25.338 32.1353 27.1638 31.8637 29.0372C31.7676 29.6791 31.6715 30.3211 31.5753 30.9631C31.4258 31.968 31.2772 32.9731 31.1308 33.9785C30.9882 34.9537 30.8418 35.9283 30.6949 36.9029C30.6521 37.2034 30.6093 37.5039 30.5653 37.8136C30.5224 38.0943 30.4796 38.375 30.4354 38.6642C30.3993 38.91 30.3632 39.1557 30.326 39.4089C30.1137 40.2237 29.8018 40.8073 29.3069 41.4894C28.6092 41.6622 28.6092 41.6622 27.9114 41.4894C26.9025 40.2698 26.8968 38.9998 26.8091 37.4906C26.7917 37.2409 26.7743 36.9911 26.7564 36.7338C26.7018 35.9393 26.6523 35.1446 26.603 34.3497C26.5668 33.8097 26.5303 33.2696 26.4935 32.7296C26.404 31.4086 26.3191 30.0874 26.2367 28.766C26.1557 29.1457 26.1557 29.1457 26.0732 29.5331C26.0005 29.8618 25.9278 30.1906 25.8529 30.5293C25.7817 30.8566 25.7104 31.1839 25.637 31.5211C25.3994 32.3617 25.3994 32.3617 24.8411 32.9149C24.0038 33.0013 24.0038 33.0013 23.1665 32.9149C22.4999 31.9241 22.4306 31.0752 22.3095 29.9231C22.2855 29.7099 22.2615 29.4966 22.2368 29.2768C22.1865 28.8247 22.1373 28.3725 22.0891 27.9202C22.0161 27.2364 21.939 26.5531 21.8614 25.8698C21.6195 23.691 21.4243 21.5572 21.4918 19.3617C21.3076 19.3617 21.1233 19.3617 20.9336 19.3617C20.9243 19.5843 20.9151 19.8069 20.9056 20.0363C20.7148 23.7131 20.2793 27.3622 19.8446 31.0174C19.733 31.9576 19.6256 32.8981 19.5192 33.8388C19.4157 34.7453 19.3075 35.6511 19.2 36.5571C19.1625 36.893 19.1249 37.229 19.0862 37.5751C19.0481 37.8874 19.0099 38.1998 18.9706 38.5216C18.9386 38.7951 18.9066 39.0686 18.8736 39.3503C18.678 40.2055 18.3854 40.7835 17.8633 41.4894C17.1655 41.645 17.1655 41.645 16.4677 41.4894C15.7443 40.7112 15.5086 40.1045 15.3816 39.064C15.3314 38.6737 15.3314 38.6737 15.2802 38.2756C15.2317 37.8576 15.2317 37.8576 15.1823 37.4312C15.1283 37.0007 15.1283 37.0007 15.0733 36.5615C14.9592 35.646 14.8499 34.73 14.7407 33.8138C14.6642 33.1925 14.5873 32.5713 14.5101 31.9501C14.3217 30.4281 14.1373 28.9058 13.9557 27.383C13.8784 27.6593 13.801 27.9356 13.7213 28.2203C13.6192 28.5809 13.5171 28.9414 13.415 29.3019C13.364 29.4842 13.3131 29.6666 13.2607 29.8545C12.8709 31.224 12.8709 31.224 12.5602 31.5319C12.0021 31.5432 11.4436 31.5437 10.8855 31.5319C10.313 30.4628 9.79184 29.3969 9.35146 28.2679C9.27919 28.0827 9.20692 27.8975 9.13245 27.7067C8.98824 27.3328 8.84636 26.958 8.70697 26.5823C8.32937 25.6033 8.16239 25.2152 7.25703 24.617C6.44842 24.5407 5.65981 24.4886 4.84968 24.4614C2.54575 24.3738 2.54575 24.3738 2.233 24.0638C2.16322 23.2513 2.16322 23.2513 2.233 22.4043C3.25876 21.7266 4.04682 21.7593 5.23346 21.7646C5.42631 21.7602 5.61916 21.7557 5.81785 21.7511C7.24033 21.7498 8.22573 22.0287 9.48993 22.6809C10.3205 23.5262 10.7798 24.3345 11.1646 25.4468C11.751 23.8455 12.0724 22.2142 12.3961 20.5459C12.4412 20.3305 12.4864 20.1152 12.5329 19.8933C12.5912 19.6006 12.5912 19.6006 12.6506 19.302C12.8393 18.8085 12.8393 18.8085 13.6766 18.2553C14.6039 18.345 14.9627 18.4234 15.6304 19.0851C15.7771 19.8527 15.8934 20.6038 15.9902 21.3778C16.0204 21.6042 16.0506 21.8306 16.0817 22.0638C16.1777 22.7878 16.2704 23.5122 16.3631 24.2367C16.4276 24.7273 16.4922 25.2178 16.5572 25.7083C16.7159 26.9116 16.8717 28.1153 17.026 29.3192C17.5422 26.1463 17.9715 22.9704 18.3332 19.7766C18.3732 19.4281 18.4132 19.0796 18.4544 18.7205C18.7034 16.5499 18.7034 16.5499 18.9441 14.3784C19.0609 13.3075 19.1854 12.2376 19.3101 11.1676C19.3616 10.6758 19.3616 10.6758 19.4142 10.1741C19.4505 9.87084 19.4869 9.5676 19.5243 9.25516C19.554 8.98931 19.5837 8.72346 19.6143 8.44955C19.8621 7.58817 20.2558 7.2142 20.9336 6.63831Z" fill="#F8F9FA" fill-opacity="0.75"/>
<path d="M141.789 17.7021C142.895 17.7021 144 17.7021 145.139 17.7021C145.139 23.0875 145.139 28.4728 145.139 34.0213C144.125 34.0213 143.112 34.0213 142.068 34.0213C141.976 33.7475 141.884 33.4736 141.789 33.1915C141.576 33.3741 141.363 33.5566 141.144 33.7447C139.875 34.5793 138.509 34.5028 137.044 34.2979C135.454 33.7999 134.488 32.6555 133.695 31.2553C132.979 29.1268 133.048 26.1554 134.009 24.1157C134.849 22.7248 135.769 22.0879 137.324 21.5745C137.896 21.5183 137.896 21.5183 138.527 21.5053C138.836 21.4946 138.836 21.4946 139.152 21.4837C139.836 21.5745 139.836 21.5745 141.51 22.4043C141.602 20.8526 141.694 19.3009 141.789 17.7021ZM137.044 26C136.493 27.2608 136.627 28.6871 137.114 29.9415C137.747 30.9288 137.747 30.9288 138.719 31.5319C139.93 31.5534 140.468 31.4478 141.353 30.6157C142.097 29.3005 141.998 27.7266 141.789 26.2766C141.285 25.4265 140.991 25.0512 140.115 24.617C138.568 24.4126 138.003 24.8063 137.044 26Z" fill="#F8F9FA" fill-opacity="0.75"/>
<path d="M82.0245 21.8511C83.417 22.7343 84.5418 23.7387 85.0969 25.3182C85.3736 26.5987 85.4087 27.7174 85.4087 29.0425C81.1257 29.1795 81.1257 29.1795 76.7562 29.3191C77.3609 30.9326 77.3609 30.9326 78.1518 31.2553C79.2821 31.3679 79.2821 31.3679 80.3847 31.2553C80.5538 31.0724 80.7229 30.8895 80.8971 30.701C81.732 29.9379 82.2706 30.0356 83.3851 30.0798C83.7118 30.0898 84.0385 30.0997 84.3751 30.11C84.6241 30.1229 84.8731 30.1357 85.1296 30.1489C84.9813 31.1547 84.7746 31.7665 84.1004 32.5346C83.9669 32.6922 83.8334 32.8498 83.6959 33.0121C82.0567 34.4493 80.424 34.4408 78.3306 34.394C76.5843 34.2288 75.4571 33.671 74.2791 32.3963C72.9631 30.4785 72.9194 28.5291 73.1277 26.2766C73.5459 24.3594 74.3123 23.2408 75.9461 22.1439C77.6304 21.2151 80.2179 21.2134 82.0245 21.8511ZM77.3144 24.8936C77.1302 25.4413 76.946 25.9889 76.7562 26.5532C78.4141 26.5532 80.0721 26.5532 81.7802 26.5532C81.2514 25.1101 81.2514 25.1101 80.1056 24.3404C79.0382 24.2302 78.1771 24.2219 77.3144 24.8936Z" fill="#F8F9FA" fill-opacity="0.75"/>
<path d="M69.6384 22.0239C70.925 22.7878 71.7163 23.7426 72.3772 25.0838C72.5691 26 72.5691 26 72.5691 29.0426C69.7138 29.0426 66.8585 29.0426 63.9166 29.0426C64.5693 30.6793 64.5693 30.6793 65.5913 31.2553C66.7254 31.3841 66.7254 31.3841 67.8242 31.2553C67.9929 31.0721 68.1617 30.8888 68.3355 30.7C69.1716 29.9387 69.7105 30.0356 70.8247 30.0798C71.1514 30.0898 71.4781 30.0998 71.8146 30.11C72.0636 30.1229 72.3126 30.1357 72.5691 30.1489C72.0306 31.8803 71.3699 32.9908 69.7954 33.9867C67.8984 34.6752 65.3466 34.6846 63.498 33.8657C62.1504 33.0616 61.0655 31.9069 60.5673 30.4255C60.2317 25.2196 60.2317 25.2196 61.6837 23.5106C63.7187 21.378 66.9148 20.7901 69.6384 22.0239ZM64.4749 25.1702C64.2906 25.6266 64.1064 26.083 63.9166 26.5532C65.5746 26.5532 67.2325 26.5532 68.9407 26.5532C68.8199 25.1871 68.8199 25.1871 68.0335 24.6689C66.6082 24.0589 65.6987 24.2197 64.4749 25.1702Z" fill="#F8F9FA" fill-opacity="0.75"/>
<path d="M106.244 21.8068C107.88 22.7291 108.828 24.2625 109.412 26C109.643 28.5098 109.526 30.549 108.017 32.6383C106.568 34.0746 105.164 34.3783 103.15 34.3843C102.793 34.3889 102.437 34.3936 102.069 34.3984C100.575 34.2526 99.4589 33.7347 98.4747 32.6037C97.2585 31.1011 96.6785 29.3185 96.775 27.3916C97.0727 25.231 97.954 23.5525 99.6435 22.1277C101.463 21.1647 104.299 21.1955 106.244 21.8068ZM101.318 24.8936C100.333 26.2888 100.282 27.6758 100.481 29.3192C100.813 30.2408 101.039 30.7687 101.824 31.359C102.659 31.5954 103.244 31.6544 104.109 31.5319C105.072 30.7264 105.734 30.1396 105.851 28.874C105.893 27.0889 105.912 25.9592 104.668 24.617C103.57 24.0731 102.296 24.1588 101.318 24.8936Z" fill="#F8F9FA" fill-opacity="0.75"/>
<path d="M94.5496 22.0412C95.4613 22.6841 95.8782 23.0458 96.294 24.0638C96.4322 24.8853 96.4322 24.8853 96.5732 25.7234C95.3758 25.7234 94.1784 25.7234 92.9447 25.7234C92.7605 25.3583 92.5763 24.9932 92.3865 24.617C91.3093 24.3647 90.6515 24.2682 89.5953 24.617C89.5953 24.8909 89.5953 25.1647 89.5953 25.4468C89.8253 25.5135 89.8253 25.5135 90.06 25.5816C90.7609 25.7869 91.4603 25.9971 92.1597 26.2075C92.4009 26.2773 92.6422 26.3472 92.8907 26.4192C94.4366 26.8888 95.677 27.3683 96.6604 28.7141C97.046 29.9301 96.9629 30.9448 96.5383 32.137C95.7581 33.2967 94.8245 33.8613 93.5029 34.2979C92.7257 34.339 91.9601 34.3618 91.1828 34.367C90.9743 34.3727 90.7658 34.3784 90.551 34.3843C88.7422 34.3969 87.6143 33.9714 86.2809 32.7075C85.5921 31.6636 85.5644 31.095 85.6878 29.8724C86.793 29.8724 87.8983 29.8724 89.0371 29.8724C89.1292 30.3287 89.2213 30.7851 89.3162 31.2553C89.7637 31.3094 90.2115 31.3607 90.6595 31.4109C90.9088 31.4398 91.1581 31.4687 91.415 31.4984C92.1447 31.5752 92.1447 31.5752 92.9447 31.2553C93.1493 30.698 93.1493 30.698 93.2238 30.1489C92.9273 30.0819 92.6309 30.0149 92.3254 29.9458C87.0215 28.7135 87.0215 28.7135 86.198 27.424C85.7987 26.3974 85.8169 25.4219 85.9669 24.3404C86.5135 23.192 87.2148 22.3576 88.372 21.7668C90.3033 21.2083 92.7021 21.209 94.5496 22.0412Z" fill="#F8F9FA" fill-opacity="0.75"/>
<path d="M109.691 21.8511C110.888 21.8511 112.086 21.8511 113.319 21.8511C113.327 22.4372 113.334 23.0234 113.341 23.6273C113.352 24.1968 113.364 24.7661 113.377 25.3355C113.385 25.7304 113.391 26.1253 113.395 26.5202C113.401 27.089 113.414 27.6572 113.428 28.2257C113.434 28.5676 113.44 28.9094 113.446 29.2616C113.624 30.2978 113.862 30.6452 114.715 31.2553C115.747 31.2144 116.21 31.1563 116.948 30.4255C117.277 29.4927 117.282 28.5588 117.315 27.5775C117.327 27.2441 117.339 26.9107 117.351 26.5672C117.362 26.2203 117.373 25.8734 117.384 25.516C117.402 24.9892 117.402 24.9892 117.42 24.4517C117.45 23.5849 117.478 22.718 117.506 21.8511C118.611 21.8511 119.717 21.8511 120.855 21.8511C120.855 25.8672 120.855 29.8834 120.855 34.0213C119.75 34.0213 118.645 34.0213 117.506 34.0213C117.414 33.7475 117.322 33.4736 117.227 33.1915C117.06 33.3227 116.893 33.4539 116.721 33.5891C115.489 34.4611 114.218 34.4314 112.761 34.2979C111.313 33.8104 110.652 33.1608 109.97 31.8085C109.634 29.6851 109.658 27.5748 109.673 25.4295C109.675 25.0846 109.676 24.7396 109.677 24.3842C109.68 23.5398 109.685 22.6954 109.691 21.8511Z" fill="#F8F9FA" fill-opacity="0.75"/>
<path d="M130.654 21.7635C131.892 22.3935 132.36 23.0884 132.858 24.3404C132.927 25.1231 132.956 25.8404 132.94 26.6202C132.938 26.8327 132.937 27.0452 132.936 27.2642C132.931 27.9378 132.921 28.6111 132.91 29.2846C132.906 29.7434 132.902 30.2022 132.899 30.6611C132.89 31.7812 132.875 32.9012 132.858 34.0213C131.753 34.0213 130.647 34.0213 129.509 34.0213C129.495 33.5014 129.481 32.9816 129.467 32.446C129.446 31.761 129.425 31.076 129.404 30.391C129.395 30.0487 129.387 29.7064 129.378 29.3537C129.367 29.0221 129.356 28.6905 129.345 28.3489C129.332 27.8926 129.332 27.8926 129.318 27.4271C129.225 26.5138 128.996 25.7507 128.671 24.8936C127.85 24.7087 127.197 24.5728 126.368 24.7553C125.438 25.5461 125.352 26.7564 125.252 27.9128C125.205 28.8368 125.173 29.76 125.147 30.6848C125.137 31.0059 125.126 31.327 125.115 31.6578C125.089 32.4455 125.065 33.2334 125.043 34.0213C123.937 34.0213 122.832 34.0213 121.693 34.0213C121.693 30.0051 121.693 25.9889 121.693 21.8511C122.799 21.8511 123.904 21.8511 125.043 21.8511C125.135 22.1249 125.227 22.3987 125.322 22.6808C125.489 22.5496 125.656 22.4184 125.828 22.2832C127.198 21.3134 129.073 21.2547 130.654 21.7635Z" fill="#F8F9FA" fill-opacity="0.75"/>
<path d="M60.5675 21.5745C60.5675 22.6698 60.5675 23.7651 60.5675 24.8936C59.9406 25.0107 59.3137 25.1277 58.6867 25.2448C57.9677 25.4749 57.6722 25.6826 57.2181 26.2766C56.9322 27.164 56.8856 28.0156 56.8507 28.9432C56.8332 29.3871 56.8332 29.3871 56.8153 29.8399C56.8043 30.1473 56.7933 30.4546 56.782 30.7713C56.77 31.0829 56.7579 31.3945 56.7455 31.7156C56.7159 32.4841 56.6878 33.2527 56.6599 34.0213C55.5546 34.0213 54.4493 34.0213 53.3105 34.0213C53.3105 30.0051 53.3105 25.989 53.3105 21.8511C54.4158 21.8511 55.5211 21.8511 56.6599 21.8511C56.752 22.2162 56.8441 22.5813 56.939 22.9575C57.1117 22.7806 57.2844 22.6038 57.4623 22.4216C58.4775 21.4452 59.182 21.5491 60.5675 21.5745Z" fill="#F8F9FA" fill-opacity="0.75"/>
</svg>
