<svg width="82" height="28" viewBox="0 0 82 28" fill="none" xmlns="http://www.w3.org/2000/svg">
<g clip-path="url(#clip0_195_1175)">
<path d="M80.2067 0.94118H68.6363C63.0234 0.94118 62.6289 6.39596 62.6289 6.39596V21.5454C62.6369 26.4115 68.2168 27.0378 68.2168 27.0378H80.2067V12.8953C81.5835 12.8953 81.4869 10.3447 80.2067 10.3447C79.0472 10.3447 72.5816 10.3447 72.5816 10.3447V20.0081C72.5816 21.8045 69.9568 21.8045 69.9568 20.0081C69.9568 18.1853 69.9568 7.99321 69.9568 7.99321C69.9568 6.83026 71.2692 6.6871 71.2692 6.6871H80.2067V0.94118ZM51.8153 10.0839C51.8153 11.63 49.1824 11.8004 49.1824 10.0839V7.47172C49.1099 5.67852 51.8234 5.64733 51.8153 7.47172V10.0839ZM58.1199 14.7845L54.9636 14.0015C57.4274 13.3584 58.7721 12.0131 58.8123 9.8056V4.71954C58.8123 3.85573 57.7092 1.07155 54.1745 0.94198H41.8231V27.0617H49.1824V17.1352C49.0133 16.6217 50.366 15.4683 50.7444 16.976L52.8621 27.0617H61.0185L58.1199 14.7845ZM31.2986 20.0081C31.2986 21.6406 28.6737 21.6686 28.6737 20.0081V7.99321C28.6737 6.34957 31.2986 6.36157 31.2986 7.99321C31.2986 9.62564 31.2986 18.3773 31.2986 20.0081ZM38.6418 6.34957C38.6418 6.34957 38.3842 1.07075 32.6191 0.810009H27.3613C26.6849 0.786846 21.378 1.55064 21.3055 6.81827V21.6638C21.3055 21.6638 21.7645 27.1785 27.3613 27.1905H32.6191C32.6191 27.1905 38.674 26.9866 38.666 21.1847L38.6418 6.34957ZM0.796875 27.0609V0.94118H8.16425V10.6046C8.28502 11.9171 9.62967 11.3341 9.72629 10.7294L11.3205 0.94118H19.4697L16.5792 12.9561L13.4229 13.7383L16.8368 14.5229L19.7355 27.0609H11.579L9.72629 16.4785C9.63772 15.6595 8.1884 15.6523 8.16425 16.6129C8.14009 17.5719 8.16425 27.0609 8.16425 27.0609H0.796875Z" fill="#F8F9FA" fill-opacity="0.75"/>
</g>
<defs>
<clipPath id="clip0_195_1175">
<rect width="82" height="28" fill="white"/>
</clipPath>
</defs>
</svg>
