<svg width="88" height="66" viewBox="0 0 88 66" fill="none" xmlns="http://www.w3.org/2000/svg">
<path d="M35.7364 1.48499C35.9716 1.48422 35.9716 1.48422 36.2117 1.48343C38.3139 1.48083 40.3228 1.57733 42.3776 2.05561C43.8081 2.33376 45.0032 2.19978 46.4201 1.86999C50.5019 1.05193 55.3787 1.15239 59.4001 2.19999C59.5484 2.23657 59.6968 2.27315 59.8496 2.31085C64.9981 3.5956 69.5913 6.07862 73.4801 9.67999C73.5995 9.7897 73.7188 9.89942 73.8418 10.0125C78.859 14.6764 82.0913 20.7867 83.3801 27.5C83.4185 27.6968 83.4568 27.8936 83.4963 28.0963C83.6177 28.9428 83.6438 29.7774 83.6525 30.6307C83.6547 30.8032 83.6568 30.9757 83.659 31.1534C83.7283 38.1566 83.7283 38.1566 82.7201 41.36C82.6394 41.6427 82.5589 41.9254 82.4786 42.2082C80.0012 50.3125 74.2603 56.992 66.8748 61.0499C62.2851 63.4672 57.4212 64.5073 52.2639 64.515C52.0286 64.5158 52.0286 64.5158 51.7886 64.5165C49.6864 64.5191 47.6775 64.4226 45.6226 63.9444C44.1921 63.6662 42.997 63.8002 41.5801 64.13C37.4984 64.948 32.6215 64.8476 28.6001 63.8C28.4518 63.7634 28.3035 63.7268 28.1507 63.6891C23.0021 62.4044 18.4089 59.9214 14.5201 56.32C14.4008 56.2103 14.2814 56.1006 14.1584 55.9875C9.14125 51.3236 5.9089 45.2133 4.62012 38.5C4.58176 38.3032 4.54341 38.1064 4.50389 37.9036C4.38251 37.0572 4.35643 36.2226 4.3477 35.3693C4.34555 35.1968 4.34341 35.0243 4.3412 34.8466C4.27196 27.8434 4.27196 27.8434 5.28012 24.64C5.36081 24.3573 5.44131 24.0746 5.5216 23.7918C7.99908 15.6875 13.74 9.00794 21.1254 4.95009C25.7151 2.53274 30.5791 1.49268 35.7364 1.48499ZM18.0401 8.35999C17.8481 8.5032 17.6561 8.64642 17.4583 8.79397C10.8884 13.9402 6.62228 21.1476 5.56973 29.4637C5.01828 35.5925 6.0158 41.3854 8.80012 46.86C8.94815 47.1667 8.94815 47.1667 9.09918 47.4796C12.5322 54.2548 18.9874 59.4013 26.1114 61.8062C28.018 62.4219 29.9178 62.8512 31.9001 63.14C32.1562 63.183 32.1562 63.183 32.4175 63.2268C35.4496 63.6658 38.568 63.347 41.5801 62.92C41.067 62.4069 40.5343 62.2045 39.8723 61.9276C36.4564 60.4973 33.518 58.6108 30.8001 56.1C30.6879 55.9974 30.5757 55.8948 30.46 55.7891C24.6475 50.4189 21.094 42.6534 20.6801 34.76C20.3814 26.3768 23.0174 18.245 28.7376 12.0175C29.1288 11.602 29.5242 11.191 29.9201 10.78C30.0613 10.6249 30.2026 10.4697 30.3481 10.3099C33.3393 7.118 37.5155 4.81426 41.5801 3.29999C41.5801 3.22739 41.5801 3.15479 41.5801 3.07999C33.2972 1.9057 24.8687 3.24604 18.0401 8.35999ZM46.4201 3.07999C46.9332 3.59308 47.4659 3.79544 48.128 4.0724C51.5439 5.50267 54.4822 7.38919 57.2001 9.89999C57.3124 10.0026 57.4246 10.1052 57.5402 10.2109C63.3524 15.5808 66.9068 23.3468 67.3201 31.24C67.6164 39.634 64.9852 47.7443 59.2626 53.9825C58.8715 54.398 58.4761 54.809 58.0801 55.22C57.9389 55.3751 57.7977 55.5302 57.6521 55.6901C54.6609 58.882 50.4848 61.1857 46.4201 62.7C46.4201 62.7726 46.4201 62.8452 46.4201 62.92C54.703 64.0943 63.1315 62.7539 69.9601 57.64C70.1521 57.4968 70.3441 57.3536 70.5419 57.206C77.1118 52.0597 81.378 44.8524 82.4305 36.5363C82.982 30.4075 81.9844 24.6146 79.2001 19.14C79.1014 18.9355 79.0027 18.731 78.9011 18.5204C75.468 11.7452 69.0128 6.59865 61.8889 4.19374C59.9822 3.57803 58.0824 3.14879 56.1001 2.85999C55.9294 2.83134 55.7587 2.8027 55.5828 2.77319C52.5506 2.33417 49.4322 2.65295 46.4201 3.07999ZM30.3876 11.7425C28.8621 13.2869 27.5591 14.8869 26.4001 16.72C26.1717 17.0731 26.1717 17.0731 25.9386 17.4333C21.792 24.2244 20.7594 32.6301 22.5581 40.3245C24.5025 48.0333 29.5034 54.9349 36.3509 59.0338C40.4487 61.563 40.4487 61.563 45.0039 62.1087C45.4079 61.952 45.8063 61.7808 46.2001 61.6C46.4736 61.489 46.7475 61.3791 47.0217 61.27C52.991 58.8378 58.1365 54.7543 61.6001 49.28C61.7527 49.0443 61.9053 48.8087 62.0625 48.5658C66.207 41.773 67.2411 33.3709 65.4422 25.6754C63.5548 18.1929 58.7736 11.3477 52.146 7.30521C43.6409 2.24638 37.2128 5.01522 30.3876 11.7425Z" fill="#F8F9FA" fill-opacity="0.75"/>
<path d="M40.4805 27.72C43.1205 27.72 43.1205 27.72 43.6994 28.1608C43.8701 28.4628 43.8701 28.4628 44.0443 28.771C44.1738 28.9884 44.3032 29.2057 44.4366 29.4297C44.5604 29.6595 44.6842 29.8894 44.8117 30.1262C44.9449 30.3552 45.078 30.5842 45.2152 30.8202C45.4595 31.2411 45.6998 31.6644 45.9347 32.0907C46.1625 32.5415 46.1625 32.5415 46.4205 32.78C46.4931 31.1102 46.5657 29.4404 46.6405 27.72C47.5117 27.72 48.3829 27.72 49.2805 27.72C49.2805 31.2048 49.2805 34.6896 49.2805 38.28C46.6405 38.28 46.6405 38.28 46.0378 37.8155C45.9134 37.6035 45.789 37.3915 45.6608 37.1731C45.5204 36.9448 45.38 36.7165 45.2354 36.4813C45.1001 36.24 44.9648 35.9986 44.8255 35.75C44.68 35.5086 44.5345 35.2673 44.3846 35.0186C44.0279 34.4242 43.683 33.8227 43.3405 33.22C43.2679 34.8898 43.1953 36.5596 43.1205 38.28C42.2493 38.28 41.3781 38.28 40.4805 38.28C40.4805 34.7952 40.4805 31.3104 40.4805 27.72Z" fill="#F8F9FA" fill-opacity="0.75"/>
<path d="M70.1797 27.72C75.8164 27.72 75.8164 27.72 77.5222 28.8887C78.5127 29.9028 78.8026 30.6895 78.8697 32.0925C78.8418 33.4117 78.4575 34.1798 77.6597 35.2C77.5508 35.4178 77.5508 35.4178 77.4397 35.64C77.5509 35.7937 77.662 35.9474 77.7766 36.1058C77.9195 36.306 78.0624 36.5062 78.2097 36.7125C78.4241 37.0111 78.4241 37.0111 78.6428 37.3158C78.9797 37.84 78.9797 37.84 78.9797 38.28C78.0063 38.384 77.0889 38.4369 76.1197 38.28C75.6711 37.8639 75.4282 37.4546 75.1245 36.9265C74.8257 36.4757 74.8257 36.4757 74.2823 36.3541C73.6696 36.2853 73.6696 36.2853 72.8197 36.3C72.8197 36.9534 72.8197 37.6068 72.8197 38.28C71.9485 38.28 71.0773 38.28 70.1797 38.28C70.1797 34.7952 70.1797 31.3104 70.1797 27.72ZM72.8197 30.36C72.8197 31.5216 72.8197 32.6832 72.8197 33.88C74.2841 33.9541 74.2841 33.9541 75.6934 33.6462C76.1824 33.225 76.1824 33.225 76.3397 32.4775C76.3397 31.6034 76.2167 31.2562 75.6797 30.58C74.8324 30.1563 73.7436 30.3492 72.8197 30.36Z" fill="#F8F9FA" fill-opacity="0.75"/>
<path d="M56.0996 27.72C61.6652 27.72 61.6652 27.72 63.5796 29.26C64.6578 30.5652 65.0418 31.9819 64.8996 33.66C64.5809 35.1418 64.2209 36.383 62.9093 37.2616C60.67 38.5879 58.8551 38.28 56.0996 38.28C56.0996 34.7952 56.0996 31.3104 56.0996 27.72ZM58.5196 30.36C58.5196 32.1024 58.5196 33.8448 58.5196 35.64C60.2387 35.6918 60.2387 35.6918 61.5996 34.98C62.2607 34.2088 62.366 33.5277 62.3215 32.5436C62.2263 31.8916 62.0276 31.5193 61.5996 31.02C60.4672 30.2562 60.0103 30.36 58.5196 30.36Z" fill="#F8F9FA" fill-opacity="0.75"/>
<path d="M27.28 27.72C28.2238 27.72 29.1676 27.72 30.14 27.72C30.6736 29.1528 31.2062 30.586 31.7379 32.0195C31.9191 32.5075 32.1005 32.9953 32.2821 33.483C32.5427 34.1829 32.8024 34.883 33.0619 35.5833C33.1437 35.8023 33.2255 36.0214 33.3098 36.2472C33.3847 36.4497 33.4596 36.6523 33.5367 36.861C33.6032 37.0398 33.6696 37.2186 33.7381 37.4029C33.88 37.84 33.88 37.84 33.88 38.28C33.0088 38.28 32.1376 38.28 31.24 38.28C30.58 37.015 30.58 37.015 30.58 36.52C28.7287 36.6289 28.7287 36.6289 26.84 36.74C26.6222 37.2482 26.4044 37.7564 26.18 38.28C25.3088 38.28 24.4376 38.28 23.54 38.28C23.6891 37.5344 23.8284 36.9312 24.0845 36.2341C24.1498 36.055 24.2151 35.8759 24.2825 35.6914C24.3528 35.5011 24.4232 35.3109 24.4957 35.1149C24.5681 34.9173 24.6405 34.7197 24.7151 34.5161C24.8678 34.0997 25.021 33.6835 25.1745 33.2674C25.4099 32.629 25.6443 31.9902 25.8784 31.3513C26.027 30.9466 26.1757 30.542 26.3244 30.1374C26.3948 29.9458 26.4651 29.7542 26.5376 29.5568C26.603 29.3798 26.6683 29.2028 26.7356 29.0205C26.7931 28.8645 26.8506 28.7086 26.9098 28.5479C27.06 28.16 27.06 28.16 27.28 27.72ZM28.6 31.68C28.3096 32.406 28.0192 33.132 27.72 33.88C28.3008 33.88 28.8816 33.88 29.48 33.88C29.2622 33.154 29.0444 32.428 28.82 31.68C28.7474 31.68 28.6748 31.68 28.6 31.68Z" fill="#F8F9FA" fill-opacity="0.75"/>
<path d="M10.7803 27.72C11.6515 27.72 12.5227 27.72 13.4203 27.72C13.4203 30.3336 13.4203 32.9472 13.4203 35.64C14.9449 35.64 16.4695 35.64 18.0403 35.64C18.0403 36.5112 18.0403 37.3824 18.0403 38.28C15.6445 38.28 13.2487 38.28 10.7803 38.28C10.7803 34.7952 10.7803 31.3104 10.7803 27.72Z" fill="#F8F9FA" fill-opacity="0.75"/>
</svg>
