<svg width="69" height="32" viewBox="0 0 69 32" fill="none" xmlns="http://www.w3.org/2000/svg">
<g clip-path="url(#clip0_195_1259)">
<path d="M11.3291 5.72327C8.57838 5.72327 6.80676 6.52077 5.31486 8.39725V6.33312H0V31.7594C0 31.7594 0.0932433 31.8064 0.372973 31.8533C0.745946 31.9471 2.70405 32.3693 4.14932 31.1496C5.40811 30.0706 5.68784 28.804 5.68784 27.3966V23.7375C7.22635 25.3794 8.95135 26.0831 11.3757 26.0831C16.5973 26.0831 20.6068 21.8141 20.6068 16.1377C20.6068 9.99226 16.7372 5.72327 11.3291 5.72327ZM10.3034 21.2511C7.36622 21.2511 5.03513 18.8117 5.03513 15.8563C5.03513 12.9477 7.78581 10.6021 10.3034 10.6021C13.2872 10.6021 15.5716 12.9008 15.5716 15.9032C15.5716 18.9055 13.2405 21.2511 10.3034 21.2511Z" fill="#F8F9FA" fill-opacity="0.75"/>
<path d="M28.1596 15.5279C28.1596 17.7327 28.3927 20.4067 30.5373 23.3153C30.5839 23.3622 30.6771 23.5029 30.6771 23.5029C29.7913 25.0041 28.719 26.0362 27.2737 26.0362C26.1548 26.0362 25.0359 25.4263 24.1035 24.3943C23.1244 23.2684 22.6582 21.8141 22.6582 20.266V0H28.1129L28.1596 15.5279Z" fill="#F8F9FA" fill-opacity="0.75"/>
<path d="M54.967 15.9032L48.5332 6.33313H55.1535L61.5406 15.9032L55.1535 25.4263H48.5332L54.967 15.9032Z" fill="#F8F9FA" fill-opacity="0.75"/>
<path d="M63.2655 14.8242L68.9999 6.33313H62.3797L60.002 9.85153L63.2655 14.8242Z" fill="#F8F9FA" fill-opacity="0.75"/>
<path d="M60.002 21.9549L61.1209 23.5029C62.1932 25.1918 63.5918 26.0362 65.2236 26.0362C66.9486 25.9893 68.1607 24.4881 68.6269 23.9252C68.6269 23.9252 67.7878 23.1746 66.7155 21.9079C65.2702 20.2191 63.3587 17.1229 63.3121 16.9822L60.002 21.9549Z" fill="#F8F9FA" fill-opacity="0.75"/>
<path d="M43.6378 19.9376C42.5189 20.9697 41.7729 21.5326 40.2344 21.5326C37.4837 21.5326 35.8986 19.5623 35.6655 17.4044H50.2581C50.3513 17.1229 50.3979 16.7476 50.3979 16.1377C50.3979 10.1799 46.0621 5.72327 40.3743 5.72327C34.9662 5.72327 30.5371 10.2737 30.5371 15.9501C30.5371 21.5795 34.9662 26.0362 40.5141 26.0362C44.3837 26.0362 47.7405 23.8313 49.5587 19.9376H43.6378ZM40.4209 10.2268C42.8452 10.2268 44.6635 11.8218 45.0831 13.9329H35.852C36.3182 11.728 38.0432 10.2268 40.4209 10.2268Z" fill="#F8F9FA" fill-opacity="0.75"/>
</g>
<defs>
<clipPath id="clip0_195_1259">
<rect width="69" height="32" fill="white"/>
</clipPath>
</defs>
</svg>
